<svg version="1.1" viewBox="0.0 0.0 960.0 720.0" fill="none" stroke="none" stroke-linecap="square" stroke-miterlimit="10" xmlns:xlink="http://www.w3.org/1999/xlink" xmlns="http://www.w3.org/2000/svg"><clipPath id="p.0"><path d="m0 0l960.0 0l0 720.0l-960.0 0l0 -720.0z" clip-rule="nonzero"/></clipPath><g clip-path="url(#p.0)"><path fill="#000000" fill-opacity="0.0" d="m0 0l960.0 0l0 720.0l-960.0 0z" fill-rule="evenodd"/><path fill="#000000" fill-opacity="0.0" d="m540.0135 359.9768c-47.73477 0 -93.514465 -18.962555 -127.26807 -52.716156c-33.7536 -33.7536 -52.716156 -79.533295 -52.716156 -127.2681l179.98422 0z" fill-rule="evenodd"/><path fill="#000000" fill-opacity="0.0" d="m540.0135 359.9768c-47.73477 0 -93.514465 -18.962555 -127.26807 -52.716156c-33.7536 -33.7536 -52.716156 -79.533295 -52.716156 -127.2681" fill-rule="evenodd"/><path stroke="#674ea7" stroke-width="24.20472440944882" stroke-linejoin="round" stroke-linecap="butt" stroke-dasharray="96.81889763779527,72.61417322834646" d="m444.0167 332.2391l-0.16186523 -0.101623535c-1.2413025 -0.7845154 -2.4736328 -1.5845947 -3.6966858 -2.4001465c-9.784302 -6.5243225 -18.974335 -14.0383 -27.41275 -22.476685c-8.438385 -8.438416 -15.952332 -17.628418 -22.476685 -27.41275c-0.81555176 -1.2230225 -1.6156006 -2.4553528 -2.400116 -3.6966553l-0.101623535 -0.16189575" fill-rule="evenodd"/><path stroke="#674ea7" stroke-width="24.20472440944882" stroke-linecap="butt" d="m444.0167 332.23907l30.202606 37.452362l45.52362 -15.571686l-30.202606 -37.452362z" fill-rule="evenodd"/><path stroke="#674ea7" stroke-width="24.20472440944882" stroke-linecap="butt" d="m387.76697 275.98935l15.571716 -45.523605l-37.452362 -30.20259l-15.571686 45.523605z" fill-rule="evenodd"/><path fill="#000000" fill-opacity="0.0" d="m359.97516 539.96814c0 -47.747314 18.96753 -93.53903 52.72998 -127.30148c33.76248 -33.76245 79.55417 -52.73001 127.30151 -52.73001l0 180.0315z" fill-rule="evenodd"/><path fill="#000000" fill-opacity="0.0" d="m359.97516 539.96814c0 -47.747314 18.96753 -93.53903 52.72998 -127.30148c33.76248 -33.76245 79.55417 -52.73001 127.30151 -52.73001" fill-rule="evenodd"/><path stroke="#674ea7" stroke-width="24.20472440944882" stroke-linejoin="round" stroke-linecap="butt" stroke-dasharray="96.81889763779527,72.61417322834646" d="m387.70563 443.96927l0.11618042 -0.18502808c0.7846985 -1.2416382 1.5849609 -2.4742737 2.4007568 -3.6976318c6.5260315 -9.786865 14.041962 -18.97934 22.482574 -27.419952c8.440613 -8.440613 17.633087 -15.956512 27.419952 -22.482605c1.2233276 -0.81573486 2.4559937 -1.6160278 3.6976318 -2.4006958l0.18502808 -0.11621094" fill-rule="evenodd"/><path stroke="#674ea7" stroke-width="24.20472440944882" stroke-linecap="butt" d="m387.70563 443.9693l-37.450073 30.205414l15.575134 45.52243l37.450073 -30.205414z" fill-rule="evenodd"/><path stroke="#674ea7" stroke-width="24.20472440944882" stroke-linecap="butt" d="m444.00775 387.66714l45.52243 15.575134l30.205414 -37.450043l-45.5224 -15.575134z" fill-rule="evenodd"/><path fill="#000000" fill-opacity="0.0" d="m179.98427 359.9768c47.734787 0 93.51448 18.962585 127.26808 52.716187c33.7536 33.75357 52.716156 79.533295 52.716156 127.26807l-179.98424 0z" fill-rule="evenodd"/><path fill="#000000" fill-opacity="0.0" d="m179.98427 359.9768c47.734787 0 93.51448 18.962585 127.26808 52.716187c33.7536 33.75357 52.716156 79.533295 52.716156 127.26807" fill-rule="evenodd"/><path stroke="#674ea7" stroke-width="24.20472440944882" stroke-linejoin="round" stroke-linecap="butt" stroke-dasharray="96.81889763779527,72.61417322834646" d="m275.98105 387.71457l0.16192627 0.101623535c1.2413025 0.78448486 2.4736023 1.5845642 3.6966553 2.4000854c9.784302 6.5243835 18.974335 14.03833 27.41272 22.476715c8.438416 8.438416 15.952362 17.628418 22.476685 27.41272c0.81555176 1.2230225 1.6156311 2.4553528 2.400116 3.6966553l0.10165405 0.16192627" fill-rule="evenodd"/><path stroke="#674ea7" stroke-width="24.20472440944882" stroke-linecap="butt" d="m275.98105 387.71457l-30.202576 -37.452362l-45.523605 15.571686l30.202606 37.452362z" fill-rule="evenodd"/><path stroke="#674ea7" stroke-width="24.20472440944882" stroke-linecap="butt" d="m332.2308 443.9643l-15.571716 45.52359l37.45233 30.202606l15.571716 -45.52359z" fill-rule="evenodd"/><path fill="#000000" fill-opacity="0.0" d="m359.97507 179.9839c0 47.734787 -18.962585 93.51448 -52.716156 127.26808c-33.7536 33.7536 -79.53331 52.716187 -127.2681 52.716187l0 -179.98427z" fill-rule="evenodd"/><path fill="#000000" fill-opacity="0.0" d="m359.97507 179.9839c0 47.734787 -18.962585 93.51448 -52.716156 127.26808c-33.7536 33.7536 -79.53331 52.716187 -127.2681 52.716187" fill-rule="evenodd"/><path stroke="#674ea7" stroke-width="24.20472440944882" stroke-linejoin="round" stroke-linecap="butt" stroke-dasharray="96.81889763779527,72.61417322834646" d="m332.23734 275.98068l-0.101623535 0.16192627c-0.78448486 1.2413025 -1.5845642 2.4736023 -2.400116 3.6966553c-6.524353 9.784302 -14.0383 18.974335 -22.476685 27.41272c-8.438416 8.438416 -17.628448 15.952362 -27.41275 22.476715c-1.2230225 0.81552124 -2.4553528 1.6156006 -3.6966553 2.4000854l-0.16192627 0.10165405" fill-rule="evenodd"/><path stroke="#674ea7" stroke-width="24.20472440944882" stroke-linecap="butt" d="m332.23734 275.98068l37.452362 -30.20259l-15.571716 -45.52359l-37.45233 30.20259z" fill-rule="evenodd"/><path stroke="#674ea7" stroke-width="24.20472440944882" stroke-linecap="butt" d="m275.9876 332.23044l-45.523605 -15.571686l-30.20259 37.45233l45.52359 15.571716z" fill-rule="evenodd"/><defs><linearGradient id="p.1" gradientUnits="userSpaceOnUse" gradientTransform="matrix(12.645930488023795 0.0 0.0 12.645930488023795 0.0 0.0)" spreadMethod="pad" x1="23.007514025151977" y1="22.14515377579297" x2="23.007467001943088" y2="34.79108426372934"><stop offset="0.0" stop-color="#dbd4eb"/><stop offset="1.0" stop-color="#9080bb"/></linearGradient></defs><path fill="url(#p.1)" d="m362.01892 322.91818c1.7833252 0 3.1930847 1.2651978 4.2293396 3.7955627l10.410706 33.726135l-34.846924 0l10.446838 -33.726135c1.0362549 -2.530365 2.4339905 -3.7955627 4.193207 -3.7955627zm-31.774323 -42.871613c-5.904236 0 -9.67569 2.446045 -11.314423 7.3380737l-19.339325 50.426544c-2.9400635 7.6875 -5.121002 14.423065 -6.5428467 20.206757c-1.3977356 5.759613 -2.0965881 10.86853 -2.0965881 15.326782l0 58.63217c0 5.3258057 2.6629028 7.9887085 7.9887695 7.9887085l32.641876 0c5.3258667 0 7.9887695 -2.6629028 7.9887695 -7.9887085l0 -31.087341l39.329346 0l0 31.087341c0 5.3258057 2.8797913 7.9887085 8.639435 7.9887085l33.545593 0c5.3258667 0 7.9887695 -2.6629028 7.9887695 -7.9887085l0 -58.63217c0 -4.458252 -0.69885254 -9.567169 -2.0965881 -15.326782c-1.3977356 -5.7836914 -3.5786743 -12.519257 -6.5428467 -20.206757l-19.339325 -50.426544c-1.614624 -4.892029 -5.3138123 -7.3380737 -11.097534 -7.3380737z" fill-rule="evenodd"/></g></svg>