<svg version="1.1" viewBox="0.0 0.0 960.0 720.0" fill="none" stroke="none" stroke-linecap="square" stroke-miterlimit="10" xmlns:xlink="http://www.w3.org/1999/xlink" xmlns="http://www.w3.org/2000/svg"><clipPath id="p.0"><path d="m0 0l960.0 0l0 720.0l-960.0 0l0 -720.0z" clip-rule="nonzero"/></clipPath><g clip-path="url(#p.0)"><path fill="#000000" fill-opacity="0.0" d="m0 0l960.0 0l0 720.0l-960.0 0z" fill-rule="evenodd"/><path fill="#000000" fill-opacity="0.0" d="m539.49603 359.99213c-15.779297 0 -30.912354 -6.2683105 -42.070038 -17.425995c-11.157684 -11.157684 -17.425995 -26.290741 -17.425995 -42.07007l59.496033 0z" fill-rule="evenodd"/><path fill="#000000" fill-opacity="0.0" d="m539.49603 359.99213c-15.779297 0 -30.912354 -6.2683105 -42.070038 -17.425995c-11.157684 -11.157684 -17.425995 -26.290741 -17.425995 -42.07007" fill-rule="evenodd"/><path stroke="#674ea7" stroke-width="8.0" stroke-linejoin="round" stroke-linecap="butt" stroke-dasharray="32.0,24.0" d="m507.76746 350.82553l-0.057861328 -0.036071777c-0.41033936 -0.25930786 -0.817688 -0.5238037 -1.2219849 -0.793396c-3.234314 -2.1567078 -6.272217 -4.640503 -9.0616455 -7.4299316c-2.7893982 -2.7893982 -5.2732544 -5.827301 -7.4299316 -9.061615c-0.26956177 -0.40429688 -0.5340576 -0.811676 -0.793396 -1.2219849l-0.03604126 -0.057861328" fill-rule="evenodd"/><path stroke="#674ea7" stroke-width="8.0" stroke-linecap="butt" d="m507.76746 350.82556l9.982849 12.378143l15.045959 -5.1471863l-9.982788 -12.378174z" fill-rule="evenodd"/><path stroke="#674ea7" stroke-width="8.0" stroke-linecap="butt" d="m489.16656 332.22467l5.147217 -15.04599l-12.378174 -9.982819l-5.147217 15.04599z" fill-rule="evenodd"/><path fill="#000000" fill-opacity="0.0" d="m479.98428 419.48755c0 -15.783508 6.2699585 -30.920593 17.430603 -42.081207c11.160614 -11.160645 26.297699 -17.430603 42.081207 -17.430603l0 59.51181z" fill-rule="evenodd"/><path fill="#000000" fill-opacity="0.0" d="m479.98428 419.48755c0 -15.783508 6.2699585 -30.920593 17.430603 -42.081207c11.160614 -11.160645 26.297699 -17.430603 42.081207 -17.430603" fill-rule="evenodd"/><path stroke="#674ea7" stroke-width="8.0" stroke-linejoin="round" stroke-linecap="butt" stroke-dasharray="32.0,24.0" d="m489.1485 387.75824l0.040893555 -0.065582275c0.2593994 -0.4104309 0.5239563 -0.8179016 0.7935791 -1.2223206c2.1572876 -3.235138 4.6417847 -6.2738647 7.431946 -9.063995c2.7901306 -2.7901611 5.8287964 -5.274658 9.063995 -7.431946c0.4043579 -0.2696228 0.81185913 -0.5341797 1.22229 -0.7935791l0.06561279 -0.040893555" fill-rule="evenodd"/><path stroke="#674ea7" stroke-width="8.0" stroke-linecap="butt" d="m489.1485 387.75824l-12.377441 9.983734l5.148346 15.045624l12.377411 -9.983734z" fill-rule="evenodd"/><path stroke="#674ea7" stroke-width="8.0" stroke-linecap="butt" d="m507.7668 369.13992l15.045624 5.1483154l9.983765 -12.377411l-15.045654 -5.148346z" fill-rule="evenodd"/><path fill="#000000" fill-opacity="0.0" d="m420.4882 359.99213c15.779327 0 30.912384 6.2683105 42.07007 17.425995c11.157684 11.157684 17.425995 26.290741 17.425995 42.07007l-59.496063 0z" fill-rule="evenodd"/><path fill="#000000" fill-opacity="0.0" d="m420.4882 359.99213c15.779327 0 30.912384 6.2683105 42.07007 17.425995c11.157684 11.157684 17.425995 26.290741 17.425995 42.07007" fill-rule="evenodd"/><path stroke="#674ea7" stroke-width="8.0" stroke-linejoin="round" stroke-linecap="butt" stroke-dasharray="32.0,24.0" d="m452.21677 369.15872l0.057891846 0.03604126c0.41033936 0.25933838 0.817688 0.5238342 1.2219849 0.793396c3.234314 2.1566772 6.272217 4.6405334 9.0616455 7.4299316c2.7893982 2.7894287 5.2732544 5.827301 7.4299316 9.0616455c0.26956177 0.40429688 0.5340576 0.8116455 0.793396 1.2219849l0.03604126 0.057861328" fill-rule="evenodd"/><path stroke="#674ea7" stroke-width="8.0" stroke-linecap="butt" d="m452.2168 369.1587l-9.982819 -12.378174l-15.04599 5.147217l9.982819 12.378174z" fill-rule="evenodd"/><path stroke="#674ea7" stroke-width="8.0" stroke-linecap="butt" d="m470.8177 387.75958l-5.147217 15.04599l12.378174 9.982819l5.147217 -15.04599z" fill-rule="evenodd"/><path fill="#000000" fill-opacity="0.0" d="m479.98425 300.49606c0 15.779327 -6.2683105 30.912384 -17.425995 42.07007c-11.157684 11.157684 -26.290741 17.425995 -42.07007 17.425995l0 -59.496063z" fill-rule="evenodd"/><path fill="#000000" fill-opacity="0.0" d="m479.98425 300.49606c0 15.779327 -6.2683105 30.912384 -17.425995 42.07007c-11.157684 11.157684 -26.290741 17.425995 -42.07007 17.425995" fill-rule="evenodd"/><path stroke="#674ea7" stroke-width="8.0" stroke-linejoin="round" stroke-linecap="butt" stroke-dasharray="32.0,24.0" d="m470.81766 332.22467l-0.03604126 0.057861328c-0.25933838 0.41030884 -0.5238342 0.817688 -0.793396 1.2219849c-2.1566772 3.234314 -4.6405334 6.272217 -7.4299316 9.061615c-2.7894287 2.7894287 -5.8273315 5.273224 -9.0616455 7.4299316c-0.40429688 0.2695923 -0.8116455 0.53408813 -1.2219849 0.793396l-0.057891846 0.036071777" fill-rule="evenodd"/><path stroke="#674ea7" stroke-width="8.0" stroke-linecap="butt" d="m470.8177 332.22467l12.378143 -9.982819l-5.1471863 -15.04599l-12.378174 9.982819z" fill-rule="evenodd"/><path stroke="#674ea7" stroke-width="8.0" stroke-linecap="butt" d="m452.2168 350.82556l-15.04599 -5.147217l-9.982819 12.378174l15.04599 5.1471863z" fill-rule="evenodd"/><defs><linearGradient id="p.1" gradientUnits="userSpaceOnUse" gradientTransform="matrix(7.270637091363345 0.0 0.0 7.270637091363345 0.0 0.0)" spreadMethod="pad" x1="62.87867971937197" y1="45.879151565064525" x2="62.878651516548636" y2="53.149788656373175"><stop offset="0.0" stop-color="#dbd4eb"/><stop offset="1.0" stop-color="#9080bb"/></linearGradient></defs><path fill="url(#p.1)" d="m480.65985 347.74225c0.58950806 0 1.0555115 0.4182129 1.3980408 1.2546387l3.4413452 11.148346l-11.51889 0l3.4532776 -11.148346c0.3425293 -0.8364258 0.8045654 -1.2546387 1.3860779 -1.2546387zm-10.503204 -14.171417c-1.9516907 0 -3.1983643 0.8085327 -3.7400513 2.4256287l-6.3927307 16.668732c-0.9718628 2.5411377 -1.69281 4.7676086 -2.1627808 6.6794434c-0.46203613 1.9038696 -0.6930542 3.5926514 -0.6930542 5.066345l0 19.381165c0 1.7604675 0.880249 2.6407166 2.640747 2.6407166l10.789978 0c1.760498 0 2.640747 -0.880249 2.640747 -2.6407166l0 -10.276093l13.000549 0l0 10.276093c0 1.7604675 0.95196533 2.6407166 2.855835 2.6407166l11.088715 0c1.760498 0 2.640747 -0.880249 2.640747 -2.6407166l0 -19.381165c0 -1.4736938 -0.23101807 -3.1624756 -0.6930542 -5.066345c-0.46203613 -1.9118347 -1.1829529 -4.1383057 -2.1627808 -6.6794434l-6.3927307 -16.668732c-0.5337219 -1.617096 -1.7565002 -2.4256287 -3.6683655 -2.4256287z" fill-rule="evenodd"/></g></svg>