<svg version="1.1" viewBox="0.0 0.0 957.4461942257218 948.9370078740158" fill="none" stroke="none" stroke-linecap="square" stroke-miterlimit="10" xmlns:xlink="http://www.w3.org/1999/xlink" xmlns="http://www.w3.org/2000/svg"><clipPath id="p.0"><path d="m0 0l957.44617 0l0 948.937l-957.44617 0l0 -948.937z" clip-rule="nonzero"/></clipPath><g clip-path="url(#p.0)"><path fill="#000000" fill-opacity="0.0" d="m0 0l957.44617 0l0 948.937l-957.44617 0z" fill-rule="evenodd"/><path fill="#000000" fill-opacity="0.0" d="m934.78436 473.30844c-120.59625 0 -236.25317 -47.906647 -321.5276 -133.18106c-85.274414 -85.27443 -133.18109 -200.93135 -133.18109 -321.5276l454.70868 0z" fill-rule="evenodd"/><path fill="#000000" fill-opacity="0.0" d="m934.78436 473.30844c-120.59625 0 -236.25317 -47.906647 -321.5276 -133.18106c-85.274414 -85.27443 -133.18109 -200.93135 -133.18109 -321.5276" fill-rule="evenodd"/><path stroke="#674ea7" stroke-width="61.15485564304462" stroke-linejoin="round" stroke-linecap="butt" stroke-dasharray="244.61942257217848,183.46456692913387" d="m692.24335 403.2228l-0.39245605 -0.24716187c-3.1359863 -1.9819336 -6.2493286 -4.0032043 -9.339172 -6.063568c-24.718872 -16.482971 -47.93634 -35.466095 -69.254944 -56.7847c-21.318604 -21.318604 -40.301697 -44.536102 -56.78473 -69.254974c-2.0603638 -3.0898743 -4.081604 -6.203186 -6.0635376 -9.339172l-0.24719238 -0.39239502" fill-rule="evenodd"/><path stroke="#674ea7" stroke-width="61.15485564304462" stroke-linecap="butt" d="m692.24335 403.2228l76.30713 94.62726l115.019104 -39.34085l-76.30713 -94.62726z" fill-rule="evenodd"/><path stroke="#674ea7" stroke-width="61.15485564304462" stroke-linecap="butt" d="m550.1613 261.1408l39.34082 -115.019104l-94.62723 -76.30715l-39.34085 115.01913z" fill-rule="evenodd"/><path fill="#000000" fill-opacity="0.0" d="m479.9011 928.0656c0 -120.62964 47.919952 -236.3186 133.21799 -321.61664c85.298035 -85.298035 200.987 -133.21799 321.61664 -133.21799l0 454.83463z" fill-rule="evenodd"/><path fill="#000000" fill-opacity="0.0" d="m479.9011 928.0656c0 -120.62964 47.919952 -236.3186 133.21799 -321.61664c85.298035 -85.298035 200.987 -133.21799 321.61664 -133.21799" fill-rule="evenodd"/><path stroke="#674ea7" stroke-width="61.15485564304462" stroke-linejoin="round" stroke-linecap="butt" stroke-dasharray="244.61942257217848,183.46456692913387" d="m549.96735 685.519l0.28601074 -0.45404053c1.9824829 -3.1369019 4.0043335 -6.2510986 6.0653076 -9.341797c16.487549 -24.725708 35.47589 -47.949646 56.800415 -69.27417c21.324463 -21.324524 44.5484 -40.312927 69.27411 -56.800415c3.0907593 -2.0609741 6.204895 -4.0828247 9.341797 -6.0653076l0.45410156 -0.28601074" fill-rule="evenodd"/><path stroke="#674ea7" stroke-width="61.15485564304462" stroke-linecap="butt" d="m549.96735 685.519l-94.621155 76.3147l39.350037 115.01599l94.621155 -76.3147z" fill-rule="evenodd"/><path stroke="#674ea7" stroke-width="61.15485564304462" stroke-linecap="butt" d="m692.1891 543.29724l115.01599 39.350037l76.3147 -94.621185l-115.01599 -39.350006z" fill-rule="evenodd"/><path fill="#000000" fill-opacity="0.0" d="m25.137794 473.30844c120.59623 0 236.25317 47.906708 321.5276 133.18112c85.274414 85.274414 133.18109 200.93134 133.18109 321.52753l-454.70868 0z" fill-rule="evenodd"/><path fill="#000000" fill-opacity="0.0" d="m25.137794 473.30844c120.59623 0 236.25317 47.906708 321.5276 133.18112c85.274414 85.274414 133.18109 200.93134 133.18109 321.52753" fill-rule="evenodd"/><path stroke="#674ea7" stroke-width="61.15485564304462" stroke-linejoin="round" stroke-linecap="butt" stroke-dasharray="244.61942257217848,183.46456692913387" d="m267.67883 543.3941l0.39239502 0.24713135c3.1359863 1.9819336 6.249298 4.003235 9.339142 6.0635986c24.718872 16.482971 47.93637 35.466125 69.254974 56.78473c21.318634 21.318604 40.301758 44.53607 56.7847 69.254944c2.0603638 3.0898438 4.0816956 6.203186 6.0635986 9.339172l0.24719238 0.39239502" fill-rule="evenodd"/><path stroke="#674ea7" stroke-width="61.15485564304462" stroke-linecap="butt" d="m267.67883 543.3941l-76.307144 -94.62726l-115.01913 39.34082l76.30714 94.62726z" fill-rule="evenodd"/><path stroke="#674ea7" stroke-width="61.15485564304462" stroke-linecap="butt" d="m409.7608 685.4761l-39.34082 115.019165l94.62726 76.30713l39.34082 -115.019104z" fill-rule="evenodd"/><path fill="#000000" fill-opacity="0.0" d="m479.90088 18.540693c0 120.59624 -47.906647 236.25316 -133.18106 321.5276c-85.274445 85.274414 -200.93135 133.18109 -321.5276 133.18109l0 -454.70868z" fill-rule="evenodd"/><path fill="#000000" fill-opacity="0.0" d="m479.90088 18.540693c0 120.59624 -47.906647 236.25316 -133.18106 321.5276c-85.274445 85.274414 -200.93135 133.18109 -321.5276 133.18109" fill-rule="evenodd"/><path stroke="#674ea7" stroke-width="61.15485564304462" stroke-linejoin="round" stroke-linecap="butt" stroke-dasharray="244.61942257217848,183.46456692913387" d="m409.81525 261.08173l-0.24716187 0.39239502c-1.9819336 3.1359863 -4.0032043 6.249298 -6.063568 9.339172c-16.482971 24.718872 -35.466095 47.93637 -56.7847 69.254974c-21.318604 21.318573 -44.536102 40.301727 -69.254974 56.784668c-3.0898743 2.0603638 -6.203186 4.0816956 -9.339172 6.0635986l-0.39239502 0.24719238" fill-rule="evenodd"/><path stroke="#674ea7" stroke-width="61.15485564304462" stroke-linecap="butt" d="m409.81525 261.08173l94.62726 -76.307144l-39.34085 -115.01912l-94.62726 76.307144z" fill-rule="evenodd"/><path stroke="#674ea7" stroke-width="61.15485564304462" stroke-linecap="butt" d="m267.73328 403.1637l-115.019135 -39.34085l-76.30715 94.62726l115.01913 39.34085z" fill-rule="evenodd"/><defs><linearGradient id="p.1" gradientUnits="userSpaceOnUse" gradientTransform="matrix(20.100598479194172 0.0 0.0 20.100598479194172 0.0 0.0)" spreadMethod="pad" x1="15.199229804117367" y1="13.500332746881295" x2="15.199157374796176" y2="33.600931225944976"><stop offset="0.0" stop-color="#dbd4eb"/><stop offset="1.0" stop-color="#9080bb"/></linearGradient></defs><path fill="url(#p.1)" d="m485.0648 379.68042c4.5055237 0 8.067322 3.1964722 10.685394 9.589386l26.30249 85.20853l-88.040344 0l26.39386 -85.20853c2.6180725 -6.392914 6.149414 -9.589386 10.594055 -9.589386zm-80.277466 -108.31439c-14.916931 0 -24.445496 6.17984 -28.585724 18.53949l-48.860565 127.401825c-7.428009 19.422333 -12.938141 36.439667 -16.530396 51.052063c-3.5313416 14.551514 -5.2970276 27.459106 -5.2970276 38.72284l0 148.13321c0 13.455566 6.727844 20.18335 20.183533 20.18335l82.46933 0c13.455688 0 20.183533 -6.727783 20.183533 -20.18335l0 -78.54169l99.36502 0l0 78.54169c0 13.455566 7.275818 20.18335 21.827454 20.18335l84.7525 0c13.455688 0 20.183533 -6.727783 20.183533 -20.18335l0 -148.13321c0 -11.263702 -1.765686 -24.171326 -5.297058 -38.72284c-3.531311 -14.612396 -9.041443 -31.62973 -16.530396 -51.052063l-48.860535 -127.401825c-4.0793457 -12.35965 -13.425232 -18.53949 -28.03772 -18.53949z" fill-rule="evenodd"/></g></svg>