<svg version="1.1" viewBox="0.0 0.0 2196.154855643045 2038.4619422572177" fill="none" stroke="none" stroke-linecap="square" stroke-miterlimit="10" xmlns:xlink="http://www.w3.org/1999/xlink" xmlns="http://www.w3.org/2000/svg"><clipPath id="p.0"><path d="m0 0l2196.1548 0l0 2038.4619l-2196.1548 0l0 -2038.4619z" clip-rule="nonzero"/></clipPath><g clip-path="url(#p.0)"><path fill="#000000" fill-opacity="0.0" d="m0 0l2196.1548 0l0 2038.4619l-2196.1548 0z" fill-rule="evenodd"/><path fill="#000000" fill-opacity="0.0" d="m1364.3552 909.47644c-120.59619 0 -236.25317 -47.906677 -321.5276 -133.18109c-85.274414 -85.274414 -133.18109 -200.93134 -133.18109 -321.5276l454.70868 0z" fill-rule="evenodd"/><path fill="#000000" fill-opacity="0.0" d="m1364.3552 909.47644c-120.59619 0 -236.25317 -47.906677 -321.5276 -133.18109c-85.274414 -85.274414 -133.18109 -200.93134 -133.18109 -321.5276" fill-rule="evenodd"/><path stroke="#674ea7" stroke-width="61.15485564304462" stroke-linejoin="round" stroke-linecap="butt" stroke-dasharray="244.61942257217848,183.46456692913387" d="m1121.8142 839.3908l-0.39245605 -0.24719238c-3.1359863 -1.9818726 -6.2493896 -4.003174 -9.339111 -6.0635376c-24.718994 -16.482971 -47.936523 -35.466064 -69.255005 -56.78473c-21.318604 -21.318665 -40.301697 -44.53607 -56.78473 -69.255005c-2.0603638 -3.0897827 -4.081604 -6.203186 -6.0635986 -9.339172l-0.24713135 -0.39233398" fill-rule="evenodd"/><path stroke="#674ea7" stroke-width="61.15485564304462" stroke-linecap="butt" d="m1121.8142 839.3908l76.30713 94.62726l115.019165 -39.34082l-76.30725 -94.62726z" fill-rule="evenodd"/><path stroke="#674ea7" stroke-width="61.15485564304462" stroke-linecap="butt" d="m979.7322 697.3088l39.34088 -115.019104l-94.62726 -76.30716l-39.34088 115.019135z" fill-rule="evenodd"/><path fill="#000000" fill-opacity="0.0" d="m909.472 1364.2336c0 -120.62964 47.91992 -236.3186 133.21796 -321.6167c85.298096 -85.298035 200.98706 -133.21796 321.6167 -133.21796l0 454.83466z" fill-rule="evenodd"/><path fill="#000000" fill-opacity="0.0" d="m909.472 1364.2336c0 -120.62964 47.91992 -236.3186 133.21796 -321.6167c85.298096 -85.298035 200.98706 -133.21796 321.6167 -133.21796" fill-rule="evenodd"/><path stroke="#674ea7" stroke-width="61.15485564304462" stroke-linejoin="round" stroke-linecap="butt" stroke-dasharray="244.61942257217848,183.46456692913387" d="m979.5382 1121.687l0.28601074 -0.45410156c1.9824829 -3.1368408 4.0043335 -6.2509766 6.0653076 -9.341797c16.487549 -24.725708 35.475952 -47.949707 56.800415 -69.27417c21.324463 -21.324463 44.548462 -40.312866 69.27417 -56.800415c3.0906982 -2.0609741 6.204834 -4.0828247 9.341797 -6.0653076l0.4539795 -0.28601074" fill-rule="evenodd"/><path stroke="#674ea7" stroke-width="61.15485564304462" stroke-linecap="butt" d="m979.53827 1121.687l-94.621216 76.3147l39.350037 115.01599l94.621155 -76.3147z" fill-rule="evenodd"/><path stroke="#674ea7" stroke-width="61.15485564304462" stroke-linecap="butt" d="m1121.76 979.4652l115.01599 39.350037l76.3147 -94.621155l-115.01599 -39.350037z" fill-rule="evenodd"/><path fill="#000000" fill-opacity="0.0" d="m454.70865 909.47644c120.59622 0 236.2532 47.906677 321.52762 133.18103c85.274414 85.274414 133.18103 200.9314 133.18103 321.5276l-454.70865 0z" fill-rule="evenodd"/><path fill="#000000" fill-opacity="0.0" d="m454.70865 909.47644c120.59622 0 236.2532 47.906677 321.52762 133.18103c85.274414 85.274414 133.18103 200.9314 133.18103 321.5276" fill-rule="evenodd"/><path stroke="#674ea7" stroke-width="61.15485564304462" stroke-linejoin="round" stroke-linecap="butt" stroke-dasharray="244.61942257217848,183.46456692913387" d="m697.2497 979.5621l0.39239502 0.24713135c3.1360474 1.9819946 6.2493286 4.003235 9.339233 6.0635986c24.718811 16.483032 47.93634 35.466125 69.25488 56.784668c21.318604 21.318604 40.301758 44.536133 56.78473 69.255005c2.0603638 3.0898438 4.081665 6.203125 6.0635376 9.339111l0.24719238 0.39257812" fill-rule="evenodd"/><path stroke="#674ea7" stroke-width="61.15485564304462" stroke-linecap="butt" d="m697.2497 979.5621l-76.30713 -94.62726l-115.019135 39.34088l76.30716 94.62726z" fill-rule="evenodd"/><path stroke="#674ea7" stroke-width="61.15485564304462" stroke-linecap="butt" d="m839.33167 1121.644l-39.34082 115.019165l94.62726 76.30713l39.34082 -115.01904z" fill-rule="evenodd"/><path fill="#000000" fill-opacity="0.0" d="m909.47174 454.70868c0 120.59625 -47.906677 236.25317 -133.18109 321.5276c-85.274414 85.274414 -200.93134 133.18109 -321.52756 133.18109l0 -454.70868z" fill-rule="evenodd"/><path fill="#000000" fill-opacity="0.0" d="m909.47174 454.70868c0 120.59625 -47.906677 236.25317 -133.18109 321.5276c-85.274414 85.274414 -200.93134 133.18109 -321.52756 133.18109" fill-rule="evenodd"/><path stroke="#674ea7" stroke-width="61.15485564304462" stroke-linejoin="round" stroke-linecap="butt" stroke-dasharray="244.61942257217848,183.46456692913387" d="m839.38617 697.2497l-0.24725342 0.39239502c-1.9818726 3.1360474 -4.003174 6.2493286 -6.0635376 9.339233c-16.482971 24.718811 -35.466125 47.93634 -56.784668 69.25488c-21.318604 21.318604 -44.536133 40.301758 -69.255005 56.78473c-3.0898438 2.0603638 -6.203186 4.081665 -9.339172 6.0635376l-0.39239502 0.24719238" fill-rule="evenodd"/><path stroke="#674ea7" stroke-width="61.15485564304462" stroke-linecap="butt" d="m839.3861 697.2497l94.62726 -76.30713l-39.34082 -115.019135l-94.62726 76.30716z" fill-rule="evenodd"/><path stroke="#674ea7" stroke-width="61.15485564304462" stroke-linecap="butt" d="m697.30414 839.33167l-115.019165 -39.34082l-76.30713 94.62726l115.019104 39.34082z" fill-rule="evenodd"/><defs><linearGradient id="p.1" gradientUnits="userSpaceOnUse" gradientTransform="matrix(20.100597969130376 0.0 0.0 20.100597969130376 0.0 0.0)" spreadMethod="pad" x1="36.570279290009545" y1="35.19958597572822" x2="36.570205840555204" y2="55.300183944724395"><stop offset="0.0" stop-color="#dbd4eb"/><stop offset="1.0" stop-color="#9080bb"/></linearGradient></defs><path fill="url(#p.1)" d="m914.6356 815.8484c4.505554 0 8.067322 3.1964722 10.685425 9.5894165l26.30249 85.208496l-88.040344 0l26.39386 -85.208496c2.618042 -6.3929443 6.149414 -9.5894165 10.594055 -9.5894165zm-80.277405 -108.31439c-14.916931 0 -24.445496 6.1798096 -28.585754 18.53949l-48.860535 127.401855c-7.4280396 19.422302 -12.938171 36.439636 -16.530396 51.052063c-3.531372 14.551453 -5.297058 27.459106 -5.297058 38.72284l0 148.13318c0 13.455566 6.727844 20.18335 20.183533 20.18335l82.4693 0c13.455688 0 20.183533 -6.727783 20.183533 -20.18335l0 -78.541626l99.36505 0l0 78.541626c0 13.455566 7.275818 20.18335 21.827454 20.18335l84.7525 0c13.455688 0 20.183594 -6.727783 20.183594 -20.18335l0 -148.13318c0 -11.263733 -1.7657471 -24.171326 -5.297119 -38.72284c-3.531372 -14.612427 -9.041504 -31.62976 -16.530396 -51.052063l-48.860535 -127.401855c-4.0793457 -12.35968 -13.425232 -18.53949 -28.03772 -18.53949z" fill-rule="evenodd"/></g></svg>